<?xml version="1.0" encoding="UTF-8"?>
<svg width="512" height="512" version="1.1" viewBox="0 0 135.47 135.47" xmlns="http://www.w3.org/2000/svg">
 <g transform="translate(0 -161.53)">
  <g transform="matrix(1.5282 0 0 1.5282 177.33 -78.014)">
   <path d="m-35.827 199.06c8.4341-4.2171 8.4341-42.171 8.4341-42.171s-12.651 0-25.302 25.302c12.651 8.4342 16.868 16.868 16.868 16.868z" fill="#6bca30"/>
   <path d="m-107.52 199.06c-8.4341-4.2171-8.4341-42.171-8.4341-42.171s12.651 0 25.302 25.302c-12.651 4.2171-16.868 16.868-16.868 16.868z" fill="#6bca30"/>
   <path d="m-107.52 245.45c-6.7473-42.171 4.2171-63.256 4.2171-63.256 21.085-8.4341 42.171-7.5907 63.256 0 10.964 21.085 4.2171 63.256 4.2171 63.256h-10.121s9.2776-31.206 0.84341-56.509c-20.242-5.0605-32.893-5.0605-53.135 0-8.4341 24.459 0.84341 56.509 0.84341 56.509z" fill="#c5985f"/>
   <path d="m-95.71 204.97c0-5.3618 3.8697-9.681 9.8273-9.681 5.9575 0 9.579 4.3192 9.579 9.681 0 5.3618-3.6215 9.681-9.579 9.681-5.9575 0-9.8273-4.3192-9.8273-9.681z" fill="#6bca30"/>
   <path d="m-67.034 204.97c0-5.3618 3.8697-9.681 9.8273-9.681 5.9575 3e-5 9.579 4.3193 9.579 9.681 0 5.3618-3.6215 9.681-9.579 9.681-5.9575 0-9.8273-4.3192-9.8273-9.681z" fill="#6bca30"/>
  </g>
 </g>
</svg>
